<?xml version="1.0" encoding="utf-8"?>
<svg xmlns="http://www.w3.org/2000/svg" viewBox="234.6963 209.0475 30 26.0118" width="30px" height="26.0118px"><path d="M 7.975 2 C 5.74 2.116 3.61 3.203 2.155 4.89 C 0.7 6.57 0 8.786 0 11 C 0 12.938 0.697 14.816 1.646 16.46 C 2.596 18.104 3.836 19.537 5.146 20.854 C 7.97 23.687 11.226 26.086 14.768 27.944 C 14.913 28.02 15.088 28.02 15.232 27.944 C 18.775 26.086 22.03 23.687 24.854 20.854 C 26.164 19.537 27.404 18.104 28.354 16.461 C 29.304 14.817 30 12.94 30 11 C 30 8.78 29.3 6.572 27.846 4.89 C 26.39 3.202 24.26 2.115 22.026 2 C 20.51 1.922 18.981 2.286 17.664 3.04 C 16.567 3.666 15.689 4.598 15 5.654 C 14.31 4.598 13.433 3.666 12.336 3.039 C 11.02 2.285 9.49 1.92 7.976 2 L 7.975 2 Z M 7.736 22.674 C 9.056 22.606 10.979 24.805 12.127 25.461 C 13.275 26.117 14.668 24.798 15.281 25.97 C 15.467 26.33 27.539 16.689 27.726 16.329 C 28.338 15.157 28.288 16.403 26.625 14.105 C 24.962 11.807 22.106 17.931 23.428 17.999 C 25.37 18.099 27.559 5.235 25.985 6.393 C 24.013 7.844 13.18 9.979 13.18 11.979 C 13.18 12.748 16.18 13.317 19.436 13.847 C 23.508 14.51 27.979 15.11 27.488 15.96 C 26.603 17.495 24.53 17.723 22.946 18.599 C 19.723 20.38 18.263 22.311 14.905 24.102 C 11.547 22.312 8.54 22.842 5.854 20.146 C 4.576 18.864 3.649 17.492 2.512 15.961 C 1.375 14.43 2.736 18.476 2.326 16.778 C 1.856 14.834 3.69 19.174 2.939 17.365 C 1.88 14.814 5.794 22.774 7.736 22.674 Z" id="object-0" transform="matrix(1, 0, 0, 1, 234.69625854492188, 207.05836486816406)"/></svg>